<?xml version="1.0" standalone="no"?>
<!DOCTYPE svg PUBLIC "-//W3C//DTD SVG 20010904//EN"
 "http://www.w3.org/TR/2001/REC-SVG-20010904/DTD/svg10.dtd">
<svg version="1.0" xmlns="http://www.w3.org/2000/svg"
 width="514.000000pt" height="289.000000pt" viewBox="0 0 514.000000 289.000000"
 preserveAspectRatio="xMidYMid meet">
<metadata>
Created by potrace 1.16, written by Peter Selinger 2001-2019
</metadata>
<g transform="translate(0.000000,289.000000) scale(0.100000,-0.100000)"
fill="#000000" stroke="none">
<path d="M215 2672 c-90 -42 -129 -125 -123 -264 5 -133 31 -182 168 -318 123
-120 150 -165 150 -244 0 -47 -4 -57 -26 -75 -27 -21 -59 -26 -89 -15 -26 10
-45 59 -45 119 l0 55 -85 0 -85 0 0 -63 c0 -125 49 -219 135 -258 47 -22 172
-26 226 -8 51 18 97 55 122 102 19 36 22 57 22 152 0 150 -21 193 -160 330
-56 55 -111 114 -122 130 -31 45 -44 103 -33 150 11 47 32 65 76 65 46 0 74
-38 74 -101 l0 -49 86 0 86 0 -3 73 c-5 93 -37 159 -98 202 -39 28 -50 30
-139 33 -78 2 -105 -1 -137 -16z"/>
<path d="M630 2600 l0 -80 90 0 90 0 0 -460 0 -460 90 0 90 0 0 460 0 460 85
0 85 0 0 80 0 80 -265 0 -265 0 0 -80z"/>
<path d="M1230 2140 l0 -540 235 0 235 0 0 80 0 80 -145 0 -145 0 0 155 0 155
115 0 115 0 0 80 0 80 -115 0 -115 0 0 145 0 145 145 0 145 0 0 80 0 80 -235
0 -235 0 0 -540z"/>
<path d="M1790 2140 l0 -540 90 0 90 0 0 199 0 198 83 5 c96 6 140 23 184 68
55 56 65 107 61 293 -4 182 -16 222 -80 270 -55 40 -92 47 -264 47 l-164 0 0
-540z m310 360 c18 -18 20 -33 20 -154 0 -162 -5 -172 -92 -182 l-58 -7 0 182
0 181 55 0 c42 0 60 -5 75 -20z"/>
<path d="M2370 2140 l0 -540 90 0 90 0 0 230 0 230 90 0 90 0 0 -230 0 -230
95 0 95 0 0 540 0 540 -95 0 -95 0 0 -230 0 -230 -90 0 -90 0 0 230 0 230 -90
0 -90 0 0 -540z"/>
<path d="M3069 2143 l-85 -538 79 -3 c44 -2 81 -1 83 1 2 2 10 44 17 93 l12
89 101 3 101 3 13 -96 13 -95 88 0 c86 0 89 1 89 23 0 12 -38 254 -83 537
l-83 515 -129 3 -130 2 -86 -537z m246 49 c19 -128 35 -235 35 -237 0 -3 -34
-5 -76 -5 -70 0 -76 2 -71 19 2 10 20 123 38 251 19 128 35 227 36 219 2 -8
19 -119 38 -247z"/>
<path d="M3650 2140 l0 -540 80 0 80 0 2 369 3 370 99 -370 100 -369 93 0 93
0 0 540 0 540 -80 0 -80 0 -2 -300 -3 -299 -80 299 -80 300 -112 0 -113 0 0
-540z"/>
<path d="M4310 2140 l0 -540 90 0 90 0 0 540 0 540 -90 0 -90 0 0 -540z"/>
<path d="M4600 2140 l0 -540 235 0 235 0 0 80 0 80 -145 0 -145 0 0 155 0 155
115 0 115 0 0 80 0 80 -115 0 -115 0 0 145 0 145 145 0 145 0 0 80 0 80 -235
0 -235 0 0 -540z"/>
<path d="M967 1230 c-95 -16 -156 -76 -182 -178 -14 -52 -16 -116 -13 -400 3
-330 3 -338 27 -390 44 -98 119 -136 254 -131 112 5 168 37 212 124 l30 59 0
365 0 366 -26 56 c-49 105 -161 152 -302 129z m122 -179 c11 -11 23 -35 26
-53 3 -18 5 -174 3 -346 l-3 -314 -28 -24 c-48 -41 -107 -28 -126 27 -15 42
-15 637 -1 676 6 15 18 34 27 41 25 18 80 15 102 -7z"/>
<path d="M2617 1230 c-95 -16 -156 -76 -182 -178 -14 -52 -16 -116 -13 -400 3
-327 4 -339 26 -387 30 -65 47 -83 107 -111 76 -36 193 -34 266 4 117 61 133
134 127 585 -3 301 -4 302 -30 358 -48 105 -160 152 -301 129z m122 -179 c29
-29 33 -78 29 -409 l-3 -304 -28 -24 c-48 -41 -107 -28 -126 27 -7 21 -11 143
-11 346 0 373 2 380 88 382 19 1 40 -7 51 -18z"/>
<path d="M130 680 l0 -540 90 0 90 0 0 230 0 230 90 0 90 0 0 -230 0 -230 90
0 90 0 0 540 0 540 -90 0 -90 0 0 -230 0 -230 -90 0 -90 0 0 230 0 230 -90 0
-90 0 0 -540z"/>
<path d="M1390 680 l0 -540 230 0 230 0 0 80 0 80 -140 0 -140 0 0 460 0 460
-90 0 -90 0 0 -540z"/>
<path d="M1920 680 l0 -540 225 0 225 0 0 80 0 80 -140 0 -140 0 0 460 0 460
-85 0 -85 0 0 -540z"/>
<path d="M3011 1193 c0 -16 26 -257 57 -538 l57 -510 121 -3 121 -3 11 98 c6
54 19 172 29 263 l17 165 23 -210 c12 -116 25 -234 28 -262 l6 -53 117 0 117
0 58 528 c32 290 58 533 58 540 -1 8 -23 12 -75 12 -63 0 -75 -3 -79 -17 -3
-10 -22 -191 -44 -403 l-38 -385 -40 403 -39 402 -88 0 c-69 0 -88 -3 -88 -14
0 -14 -67 -720 -72 -761 -2 -11 -20 144 -41 345 -21 201 -41 380 -44 398 l-5
32 -84 0 -84 0 1 -27z"/>
<path d="M4039 1218 c-1 -2 -40 -244 -88 -538 l-86 -535 79 -3 c43 -2 80 -1
83 1 2 3 8 36 14 73 18 126 6 114 118 114 l99 0 11 -75 c6 -42 11 -85 11 -95
0 -18 7 -20 94 -20 l93 0 -11 72 c-7 40 -46 283 -86 540 l-75 468 -127 0 c-71
0 -129 -1 -129 -2z m156 -478 c19 -129 35 -238 35 -242 0 -5 -34 -8 -76 -8
-67 0 -75 2 -71 18 3 9 20 119 38 244 18 125 34 226 36 225 1 -2 18 -108 38
-237z"/>
<path d="M4480 1215 c0 -3 47 -163 105 -357 l105 -352 0 -183 0 -183 90 0 90
0 0 175 0 176 105 353 c58 195 105 359 105 365 0 7 -29 11 -84 11 l-83 0 -59
-225 c-33 -124 -61 -225 -64 -225 -3 0 -32 101 -64 225 l-59 225 -94 0 c-51 0
-93 -2 -93 -5z"/>
</g>
</svg>
